<svg xmlns="http://www.w3.org/2000/svg" width="192" height="192" viewBox="0 0 192 192">
  <defs>
    <linearGradient id="bg" x1="0%" y1="0%" x2="100%" y2="100%">
      <stop offset="0%" style="stop-color:#34d399"/>
      <stop offset="100%" style="stop-color:#059669"/>
    </linearGradient>
  </defs>
  <rect width="192" height="192" rx="40" fill="url(#bg)"/>
  <path d="M96 40C63.07 40 36 64.6 36 94.8c0 17.2 9.1 32.6 23.4 42.6L55 152l15.6-8.5c7.5 2.1 15.5 3.3 23.8 3.3h1.6C128.93 146.8 156 122.2 156 92c0-30.2-27.07-52-60-52zm-1.6 8h1.6c27.6 0 50 18.2 50 44s-22.4 44-50 44c-7.4 0-14.5-1.4-21-4l-3-1.2-2.8 1.5-7.6 4.1 2.6-8.4-2.4-1.8C50.4 119 44 107.4 44 94.8 44 69 66.4 48 94.4 48zM72 82a6 6 0 1 0 0 12 6 6 0 0 0 0-12zm24 0a6 6 0 1 0 0 12 6 6 0 0 0 0-12zm24 0a6 6 0 1 0 0 12 6 6 0 0 0 0-12z" fill="white"/>
</svg>
