<svg xmlns="http://www.w3.org/2000/svg" width="512" height="512" viewBox="0 0 512 512">
  <defs>
    <linearGradient id="bg" x1="0%" y1="0%" x2="100%" y2="100%">
      <stop offset="0%" style="stop-color:#34d399"/>
      <stop offset="100%" style="stop-color:#059669"/>
    </linearGradient>
  </defs>
  <rect width="512" height="512" rx="96" fill="url(#bg)"/>
  <path d="M256 96c-88.4 0-160 65.7-160 146.7 0 46 24.3 87.2 62.5 114l-10.5 41 41.7-22.7c20 5.6 41.3 8.7 63.5 8.7h4.3C345.8 383.7 416 318 416 237c0-80.7-71.6-141-160-141zm-4.3 21.3h4.3c73.6 0 133.3 48.7 133.3 117.4s-59.7 117.3-133.3 117.3c-19.8 0-38.7-3.7-56-10.7l-8-3.2-7.5 4-20.3 11 6.9-22.4-6.4-4.8c-33.6-25-53-53.6-53-91.2 0-68.7 59.7-117.4 140-117.4zM196 216a16 16 0 1 0 0 32 16 16 0 0 0 0-32zm64 0a16 16 0 1 0 0 32 16 16 0 0 0 0-32zm64 0a16 16 0 1 0 0 32 16 16 0 0 0 0-32z" fill="white"/>
</svg>
